<svg width="409" height="73" viewBox="0 0 409 73" fill="none" xmlns="http://www.w3.org/2000/svg">
<path d="M76.2876 24.3073C51.3028 37.8872 26.3161 10.7056 1.33126 23.8748C1.06413 24.0163 0.743168 23.8249 0.743168 23.5239V4.49574C0.743168 4.34822 0.822907 4.21266 0.952486 4.14288C25.9373 -9.43698 50.9241 17.7447 75.9089 4.57548C76.176 4.43394 76.497 4.62532 76.497 4.92634V23.9545C76.497 24.1 76.4172 24.2376 76.2876 24.3073Z" fill="black"/>
<path d="M76.2878 50.2231C51.303 63.803 26.3162 36.6213 1.33144 49.7905C1.06431 49.932 0.743352 49.7407 0.743352 49.4397V30.4115C0.743352 30.264 0.82309 30.1284 0.952669 30.0586C25.9375 16.4788 50.9243 43.6604 75.9091 30.4912C76.1762 30.3497 76.4971 30.5411 76.4971 30.8421V49.8703C76.4971 50.0158 76.4174 50.1533 76.2878 50.2231Z" fill="black"/>
<path d="M0.743164 56.2994V72.1818C0.743164 72.5366 1.17177 72.714 1.42296 72.4628L21.5316 52.3542C21.5316 52.3542 15.7903 51.5727 9.73793 52.7469C4.54481 53.7556 1.64025 55.492 0.92059 55.9645C0.808953 56.0402 0.743164 56.1658 0.743164 56.2994Z" fill="black"/>
<path d="M112.427 15.8206C119.568 15.8206 124.38 19.546 125.932 25.9621H118.119C117.291 23.5302 115.377 21.9779 112.375 21.9779C108.34 21.9779 105.649 25.0308 105.649 30.619C105.649 36.2072 108.34 39.2082 112.375 39.2082C115.377 39.2082 117.239 37.863 118.119 35.2758H125.932C124.38 41.3815 119.568 45.4174 112.427 45.4174C104.148 45.4174 98.2498 39.6222 98.2498 30.619C98.2498 21.6158 104.148 15.8206 112.427 15.8206Z" fill="black"/>
<path d="M144.334 45.4174C136.055 45.4174 129.794 39.6222 129.794 30.619C129.794 21.564 136.262 15.8206 144.541 15.8206C152.819 15.8206 159.287 21.564 159.287 30.619C159.287 39.6222 152.664 45.4174 144.334 45.4174ZM144.334 39.1048C148.163 39.1048 151.836 36.3107 151.836 30.619C151.836 24.8755 148.266 22.1332 144.437 22.1332C140.608 22.1332 137.141 24.8755 137.141 30.619C137.141 36.3107 140.453 39.1048 144.334 39.1048Z" fill="black"/>
<path d="M201.838 29.1184C201.838 24.565 199.82 22.1848 195.992 22.1848C192.111 22.1848 190.093 24.565 190.093 29.1184V44.9516H182.849V29.1184C182.849 24.565 180.831 22.1848 177.002 22.1848C173.07 22.1848 171.052 24.565 171.052 29.1184V44.9516H163.808V16.2862H171.052V19.753C172.863 17.3728 175.398 15.8723 178.968 15.8723C183.418 15.8723 186.574 17.7867 188.541 21.357C190.403 18.0972 193.663 15.8723 197.854 15.8723C204.736 15.8723 209.082 20.2186 209.082 28.1352V44.9516H201.838V29.1184Z" fill="black"/>
<path d="M252.494 29.1184C252.494 24.565 250.476 22.1848 246.647 22.1848C242.767 22.1848 240.749 24.565 240.749 29.1184V44.9516H233.505V29.1184C233.505 24.565 231.487 22.1848 227.658 22.1848C223.725 22.1848 221.707 24.565 221.707 29.1184V44.9516H214.463V16.2862H221.707V19.753C223.518 17.3728 226.054 15.8723 229.624 15.8723C234.074 15.8723 237.23 17.7867 239.196 21.357C241.059 18.0972 244.319 15.8723 248.51 15.8723C255.392 15.8723 259.738 20.2186 259.738 28.1352V44.9516H252.494V29.1184Z" fill="black"/>
<path d="M290.544 44.8269H283.248V41.2049C281.437 43.6368 278.798 45.1891 275.228 45.1891C268.553 45.1891 264.259 40.8427 264.259 32.9778V16.1614H271.503V31.943C271.503 36.548 273.52 39.0317 277.349 39.0317C281.282 39.0317 283.248 36.548 283.248 31.943V16.1614H290.544V44.8269Z" fill="black"/>
<path d="M314.966 28.9811C314.966 24.376 312.948 21.8923 309.119 21.8923C305.187 21.8923 303.169 24.376 303.169 28.9811V44.8143H295.925V16.1489H303.169V19.7191C305.032 17.2872 307.619 15.735 311.293 15.735C317.967 15.735 322.21 20.0813 322.21 27.998V44.8143H314.966V28.9811Z" fill="black"/>
<path d="M326.836 6.93123C326.836 4.55107 328.699 2.68832 331.286 2.68832C333.821 2.68832 335.736 4.55107 335.736 6.93123C335.736 9.31139 333.821 11.1741 331.286 11.1741C328.699 11.1741 326.836 9.31139 326.836 6.93123ZM327.612 16.1414H334.856V44.8068H327.612V16.1414Z" fill="black"/>
<path d="M342.79 22.0917H339.375V16.1413H342.79V9.05252H350.086V16.1413H352.885L355.467 22.0917H350.086V35.9587C350.086 37.8732 350.862 38.7011 353.139 38.7011H355.467V44.8067H351.949C346.464 44.8067 342.79 42.4783 342.79 35.907V22.0917Z" fill="black"/>
<path d="M380.223 16.1415H387.932L370.185 58.3635H362.475L368.684 44.0825L357.197 16.1415H365.321L372.72 36.1659L380.223 16.1415Z" fill="black"/>
<path d="M393.481 17.5051H395.403V23.2589H396.932V17.5051H398.853V16.1415H393.481V17.5051Z" fill="black"/>
<path d="M403.734 20.7281L401.585 16.1415H400.335L399.457 23.2589H400.976L401.482 18.9926L403.155 22.4429H404.323L405.986 18.9926L406.482 23.2589H408L407.132 16.1415H405.862L403.734 20.7281Z" fill="black"/>
</svg>
